# xmcd
#
# Track frame offsets:
#	150
#	19404
#	37364
#	54746
#	67307
#	83048
#	102094
#	126308
#	141404
#
# Disc length: 2093 seconds
#
# Revision: 0
# Processed by: cddbd v1.5PL3 Copyright (c) Steve Scherf et al.
# Submitted via: audiograbber 1.83.01
#
DISCID=8d082b09
DTITLE=Bonnie Raitt - Sweet Forgiveness
DYEAR=1977
DGENRE=Country
TTITLE0=About to Make Me Leave Home
TTITLE1=Runaway
TTITLE2=Two Lives
TTITLE3=Louise
TTITLE4=Gamblin' Man
TTITLE5=Sweet Forgiveness
TTITLE6=My Opening Farewell
TTITLE7=Three Time Loser
TTITLE8=Home
EXTD=
EXTT0=
EXTT1=
EXTT2=
EXTT3=
EXTT4=
EXTT5=
EXTT6=
EXTT7=
EXTT8=
PLAYORDER=
